<svg width="30" height="30" viewBox="0 0 30 30" fill="none" xmlns="http://www.w3.org/2000/svg">
<rect width="30" height="30" fill="white"/>
<path d="M4.576 9.672C4.84267 9.68267 5.184 9.69333 5.6 9.704C6.016 9.71467 6.432 9.72 6.848 9.72C7.37067 9.72 7.86667 9.71467 8.336 9.704C8.80533 9.69333 9.136 9.688 9.328 9.688C10.7573 9.688 11.8187 9.98133 12.512 10.568C13.216 11.1547 13.568 11.912 13.568 12.84C13.568 13.224 13.4987 13.6293 13.36 14.056C13.2213 14.472 12.9813 14.8613 12.64 15.224C12.2987 15.576 11.8293 15.864 11.232 16.088C10.6453 16.312 9.89333 16.424 8.976 16.424H7.376V16.104H8.816C9.488 16.104 10 15.96 10.352 15.672C10.7147 15.384 10.9547 15.0053 11.072 14.536C11.2 14.0667 11.264 13.56 11.264 13.016C11.264 12.0027 11.0987 11.2453 10.768 10.744C10.4373 10.2427 9.86667 9.992 9.056 9.992C8.61867 9.992 8.33067 10.0827 8.192 10.264C8.064 10.4453 8 10.8133 8 11.368V19.24C8 19.6453 8.04267 19.9493 8.128 20.152C8.21333 20.3547 8.37867 20.488 8.624 20.552C8.86933 20.616 9.22133 20.6533 9.68 20.664V21C9.37067 20.9787 8.97067 20.968 8.48 20.968C7.98933 20.9573 7.48267 20.952 6.96 20.952C6.512 20.952 6.08 20.9573 5.664 20.968C5.248 20.968 4.88533 20.9787 4.576 21V20.68C4.928 20.6587 5.18933 20.616 5.36 20.552C5.54133 20.488 5.65867 20.36 5.712 20.168C5.776 19.976 5.808 19.688 5.808 19.304V11.368C5.808 10.9733 5.776 10.6853 5.712 10.504C5.65867 10.312 5.54133 10.184 5.36 10.12C5.18933 10.0453 4.928 10.0027 4.576 9.992V9.672ZM14.4823 9.672C14.7489 9.68267 15.0903 9.69333 15.5063 9.704C15.9223 9.71467 16.3383 9.72 16.7543 9.72C17.2769 9.72 17.7729 9.71467 18.2423 9.704C18.7116 9.69333 19.0423 9.688 19.2343 9.688C20.1943 9.688 20.9836 9.80533 21.6023 10.04C22.2316 10.264 22.7009 10.584 23.0103 11C23.3196 11.416 23.4743 11.9067 23.4743 12.472C23.4743 12.824 23.4049 13.1867 23.2663 13.56C23.1276 13.9227 22.8876 14.2587 22.5463 14.568C22.2049 14.8773 21.7356 15.1333 21.1383 15.336C20.5516 15.528 19.7996 15.624 18.8823 15.624H17.3463V15.304H18.7223C19.3943 15.304 19.9063 15.1867 20.2583 14.952C20.6209 14.7067 20.8609 14.3867 20.9783 13.992C21.1063 13.5867 21.1703 13.1387 21.1703 12.648C21.1703 11.8053 21.0049 11.1547 20.6743 10.696C20.3436 10.2267 19.7729 9.992 18.9623 9.992C18.5249 9.992 18.2369 10.0827 18.0983 10.264C17.9703 10.4453 17.9062 10.8133 17.9062 11.368V19.304C17.9062 19.688 17.9383 19.976 18.0023 20.168C18.0663 20.36 18.1836 20.488 18.3543 20.552C18.5356 20.616 18.7969 20.6587 19.1383 20.68V21C18.8716 20.9787 18.5303 20.968 18.1143 20.968C17.6983 20.9573 17.2769 20.952 16.8503 20.952C16.3703 20.952 15.9223 20.9573 15.5063 20.968C15.0903 20.968 14.7489 20.9787 14.4823 21V20.68C14.8343 20.6587 15.0956 20.616 15.2663 20.552C15.4476 20.488 15.5649 20.36 15.6183 20.168C15.6823 19.976 15.7143 19.688 15.7143 19.304V11.368C15.7143 10.9733 15.6823 10.6853 15.6183 10.504C15.5649 10.312 15.4476 10.184 15.2663 10.12C15.0956 10.0453 14.8343 10.0027 14.4823 9.992V9.672ZM17.3463 15.352C17.8476 15.3733 18.2636 15.4 18.5943 15.432C18.9356 15.4533 19.2236 15.4747 19.4583 15.496C19.7036 15.5173 19.9223 15.544 20.1143 15.576C20.9996 15.6613 21.6503 15.8693 22.0663 16.2C22.4929 16.52 22.7756 17.0107 22.9143 17.672L23.2823 19.32C23.3783 19.7573 23.4796 20.072 23.5863 20.264C23.7036 20.4453 23.8689 20.5307 24.0823 20.52C24.2316 20.52 24.3596 20.4827 24.4663 20.408C24.5729 20.3227 24.6796 20.2107 24.7863 20.072L25.0103 20.264C24.7436 20.5947 24.4609 20.84 24.1623 21C23.8636 21.1493 23.4849 21.224 23.0263 21.224C22.5143 21.224 22.0823 21.1067 21.7303 20.872C21.3783 20.6267 21.1383 20.168 21.0103 19.496L20.7063 17.896C20.6209 17.448 20.5196 17.0533 20.4023 16.712C20.2956 16.3707 20.1463 16.104 19.9543 15.912C19.7623 15.72 19.4796 15.624 19.1063 15.624H17.3783L17.3463 15.352Z" fill="#0E0E0E"/>
</svg>
